<svg xmlns="http://www.w3.org/2000/svg" width="800" height="600" viewBox="0 0 800 600" role="img" aria-labelledby="title desc">
  <title id="title">Bloom Hero Illustration</title>
  <desc id="desc">Abstract soft gradient with a heart icon for meditation and wellness.</desc>
  <defs>
    <linearGradient id="g" x1="0" y1="0" x2="1" y2="1">
      <stop offset="0%" stop-color="#E9D5FF"/>
      <stop offset="50%" stop-color="#FBCFE8"/>
      <stop offset="100%" stop-color="#BBF7D0"/>
    </linearGradient>
    <filter id="blur" x="-20%" y="-20%" width="140%" height="140%">
      <feGaussianBlur stdDeviation="30"/>
    </filter>
  </defs>
  <rect width="800" height="600" fill="url(#g)"/>
  <g filter="url(#blur)">
    <circle cx="200" cy="160" r="120" fill="#EDE9FE" opacity="0.6"/>
    <circle cx="640" cy="420" r="160" fill="#FFE4E6" opacity="0.5"/>
  </g>
  <g transform="translate(400 300)">
    <circle r="120" fill="#FFFFFF" opacity="0.75"/>
    <path d="M0 70c-40-22-78-64-78-105 0-26 20-45 43-45 15 0 29 8 35 22 6-14 20-22 35-22 23 0 43 19 43 45 0 41-38 83-78 105z" fill="#A855F7"/>
  </g>
  <text x="400" y="540" text-anchor="middle" font-family="'Inter',sans-serif" font-size="28" fill="#6B7280">Bloom • Wellness & Mindfulness</text>
</svg>

